<svg width="129" height="68" viewBox="0 0 129 68" fill="none" xmlns="http://www.w3.org/2000/svg">
<path d="M6.73 22.3C5.67667 22.3 4.72667 22.1167 3.88 21.75C3.04 21.3833 2.34667 20.86 1.8 20.18C1.26 19.4933 0.916667 18.68 0.77 17.74L3.27 17.36C3.48333 18.2133 3.92 18.8733 4.58 19.34C5.24667 19.8067 6.01333 20.04 6.88 20.04C7.39333 20.04 7.87667 19.96 8.33 19.8C8.78333 19.64 9.15 19.4067 9.43 19.1C9.71667 18.7933 9.86 18.4167 9.86 17.97C9.86 17.77 9.82667 17.5867 9.76 17.42C9.69333 17.2467 9.59333 17.0933 9.46 16.96C9.33333 16.8267 9.16667 16.7067 8.96 16.6C8.76 16.4867 8.52667 16.39 8.26 16.31L4.54 15.21C4.22 15.1167 3.87333 14.9933 3.5 14.84C3.13333 14.68 2.78333 14.4633 2.45 14.19C2.12333 13.91 1.85333 13.5567 1.64 13.13C1.43333 12.6967 1.33 12.1633 1.33 11.53C1.33 10.6033 1.56333 9.82667 2.03 9.2C2.50333 8.56667 3.13667 8.09333 3.93 7.78C4.73 7.46667 5.61667 7.31333 6.59 7.32C7.57667 7.32667 8.45667 7.49667 9.23 7.83C10.0033 8.15667 10.65 8.63333 11.17 9.26C11.69 9.88667 12.0567 10.6433 12.27 11.53L9.68 11.98C9.57333 11.4733 9.36667 11.0433 9.06 10.69C8.76 10.33 8.39 10.0567 7.95 9.87C7.51667 9.68333 7.05333 9.58333 6.56 9.57C6.08 9.56333 5.63333 9.63667 5.22 9.79C4.81333 9.93667 4.48333 10.15 4.23 10.43C3.98333 10.71 3.86 11.0367 3.86 11.41C3.86 11.7633 3.96667 12.0533 4.18 12.28C4.39333 12.5 4.65667 12.6767 4.97 12.81C5.29 12.9367 5.61333 13.0433 5.94 13.13L8.52 13.85C8.87333 13.9433 9.27 14.07 9.71 14.23C10.15 14.39 10.5733 14.6133 10.98 14.9C11.3867 15.1867 11.72 15.5633 11.98 16.03C12.2467 16.4967 12.38 17.09 12.38 17.81C12.38 18.5567 12.2233 19.2133 11.91 19.78C11.6033 20.34 11.1867 20.8067 10.66 21.18C10.1333 21.5533 9.53 21.8333 8.85 22.02C8.17667 22.2067 7.47 22.3 6.73 22.3ZM19.9145 22.3C18.8345 22.3 17.8912 22.0567 17.0845 21.57C16.2779 21.0833 15.6512 20.4133 15.2045 19.56C14.7645 18.7 14.5445 17.7133 14.5445 16.6C14.5445 15.4667 14.7712 14.4733 15.2245 13.62C15.6779 12.7667 16.3079 12.1 17.1145 11.62C17.9212 11.14 18.8545 10.9 19.9145 10.9C21.0012 10.9 21.9479 11.1433 22.7545 11.63C23.5612 12.1167 24.1879 12.79 24.6345 13.65C25.0812 14.5033 25.3045 15.4867 25.3045 16.6C25.3045 17.72 25.0779 18.71 24.6245 19.57C24.1779 20.4233 23.5512 21.0933 22.7445 21.58C21.9379 22.06 20.9945 22.3 19.9145 22.3ZM19.9145 20.04C20.8745 20.04 21.5879 19.72 22.0545 19.08C22.5212 18.44 22.7545 17.6133 22.7545 16.6C22.7545 15.5533 22.5179 14.72 22.0445 14.1C21.5712 13.4733 20.8612 13.16 19.9145 13.16C19.2679 13.16 18.7345 13.3067 18.3145 13.6C17.9012 13.8867 17.5945 14.29 17.3945 14.81C17.1945 15.3233 17.0945 15.92 17.0945 16.6C17.0945 17.6467 17.3312 18.4833 17.8045 19.11C18.2845 19.73 18.9879 20.04 19.9145 20.04ZM32.7978 22.3C31.6845 22.3 30.7345 22.0533 29.9478 21.56C29.1611 21.06 28.5578 20.38 28.1378 19.52C27.7245 18.66 27.5145 17.6867 27.5078 16.6C27.5145 15.4933 27.7311 14.5133 28.1578 13.66C28.5911 12.8 29.2045 12.1267 29.9978 11.64C30.7911 11.1467 31.7345 10.9 32.8278 10.9C34.0545 10.9 35.0911 11.21 35.9378 11.83C36.7911 12.4433 37.3478 13.2833 37.6078 14.35L35.2078 15C35.0211 14.42 34.7111 13.97 34.2778 13.65C33.8445 13.3233 33.3511 13.16 32.7978 13.16C32.1711 13.16 31.6545 13.31 31.2478 13.61C30.8411 13.9033 30.5411 14.31 30.3478 14.83C30.1545 15.35 30.0578 15.94 30.0578 16.6C30.0578 17.6267 30.2878 18.4567 30.7478 19.09C31.2078 19.7233 31.8911 20.04 32.7978 20.04C33.4378 20.04 33.9411 19.8933 34.3078 19.6C34.6811 19.3067 34.9611 18.8833 35.1478 18.33L37.6078 18.88C37.2745 19.98 36.6911 20.8267 35.8578 21.42C35.0245 22.0067 34.0045 22.3 32.7978 22.3ZM40.1187 9.56V7.35H42.5287V9.56H40.1187ZM40.1187 22V11.2H42.5287V22H40.1187ZM49.1442 22.3C48.3642 22.3 47.7042 22.1533 47.1642 21.86C46.6242 21.56 46.2142 21.1633 45.9342 20.67C45.6609 20.1767 45.5242 19.6333 45.5242 19.04C45.5242 18.52 45.6109 18.0533 45.7842 17.64C45.9576 17.22 46.2242 16.86 46.5842 16.56C46.9442 16.2533 47.4109 16.0033 47.9842 15.81C48.4176 15.67 48.9242 15.5433 49.5042 15.43C50.0909 15.3167 50.7242 15.2133 51.4042 15.12C52.0909 15.02 52.8076 14.9133 53.5542 14.8L52.6942 15.29C52.7009 14.5433 52.5342 13.9933 52.1942 13.64C51.8542 13.2867 51.2809 13.11 50.4742 13.11C49.9876 13.11 49.5176 13.2233 49.0642 13.45C48.6109 13.6767 48.2942 14.0667 48.1142 14.62L45.9142 13.93C46.1809 13.0167 46.6876 12.2833 47.4342 11.73C48.1876 11.1767 49.2009 10.9 50.4742 10.9C51.4342 10.9 52.2776 11.0567 53.0042 11.37C53.7376 11.6833 54.2809 12.1967 54.6342 12.91C54.8276 13.29 54.9442 13.68 54.9842 14.08C55.0242 14.4733 55.0442 14.9033 55.0442 15.37V22H52.9342V19.66L53.2842 20.04C52.7976 20.82 52.2276 21.3933 51.5742 21.76C50.9276 22.12 50.1176 22.3 49.1442 22.3ZM49.6242 20.38C50.1709 20.38 50.6376 20.2833 51.0242 20.09C51.4109 19.8967 51.7176 19.66 51.9442 19.38C52.1776 19.1 52.3342 18.8367 52.4142 18.59C52.5409 18.2833 52.6109 17.9333 52.6242 17.54C52.6442 17.14 52.6542 16.8167 52.6542 16.57L53.3942 16.79C52.6676 16.9033 52.0442 17.0033 51.5242 17.09C51.0042 17.1767 50.5576 17.26 50.1842 17.34C49.8109 17.4133 49.4809 17.4967 49.1942 17.59C48.9142 17.69 48.6776 17.8067 48.4842 17.94C48.2909 18.0733 48.1409 18.2267 48.0342 18.4C47.9342 18.5733 47.8842 18.7767 47.8842 19.01C47.8842 19.2767 47.9509 19.5133 48.0842 19.72C48.2176 19.92 48.4109 20.08 48.6642 20.2C48.9242 20.32 49.2442 20.38 49.6242 20.38ZM58.4477 22V7.3H60.8577V22H58.4477ZM69.057 22V7.6H71.227L76.207 17.8L81.187 7.6H83.357V22H81.107V12.77L76.687 22H75.727L71.317 12.77V22H69.057ZM91.6764 22.3C90.5831 22.3 89.6231 22.0633 88.7964 21.59C87.9697 21.1167 87.3231 20.46 86.8564 19.62C86.3964 18.78 86.1664 17.8133 86.1664 16.72C86.1664 15.54 86.3931 14.5167 86.8464 13.65C87.2997 12.7767 87.9297 12.1 88.7364 11.62C89.5431 11.14 90.4764 10.9 91.5364 10.9C92.6564 10.9 93.6064 11.1633 94.3864 11.69C95.1731 12.21 95.7564 12.9467 96.1364 13.9C96.5164 14.8533 96.6597 15.9767 96.5664 17.27H94.1764V16.39C94.1697 15.2167 93.9631 14.36 93.5564 13.82C93.1497 13.28 92.5097 13.01 91.6364 13.01C90.6497 13.01 89.9164 13.3167 89.4364 13.93C88.9564 14.5367 88.7164 15.4267 88.7164 16.6C88.7164 17.6933 88.9564 18.54 89.4364 19.14C89.9164 19.74 90.6164 20.04 91.5364 20.04C92.1297 20.04 92.6397 19.91 93.0664 19.65C93.4997 19.3833 93.8331 19 94.0664 18.5L96.4464 19.22C96.0331 20.1933 95.3931 20.95 94.5264 21.49C93.6664 22.03 92.7164 22.3 91.6764 22.3ZM87.9564 17.27V15.45H95.3864V17.27H87.9564ZM103.728 22.3C102.734 22.3 101.868 22.05 101.128 21.55C100.388 21.05 99.8143 20.37 99.4077 19.51C99.001 18.65 98.7977 17.68 98.7977 16.6C98.7977 15.5067 99.001 14.5333 99.4077 13.68C99.821 12.82 100.404 12.1433 101.158 11.65C101.911 11.15 102.798 10.9 103.818 10.9C104.844 10.9 105.704 11.15 106.398 11.65C107.098 12.1433 107.628 12.82 107.988 13.68C108.348 14.54 108.528 15.5133 108.528 16.6C108.528 17.6733 108.348 18.6433 107.988 19.51C107.628 20.37 107.091 21.05 106.378 21.55C105.664 22.05 104.781 22.3 103.728 22.3ZM104.098 20.14C104.744 20.14 105.264 19.9933 105.658 19.7C106.058 19.4 106.348 18.9833 106.528 18.45C106.714 17.9167 106.808 17.3 106.808 16.6C106.808 15.8933 106.714 15.2767 106.528 14.75C106.348 14.2167 106.064 13.8033 105.678 13.51C105.291 13.21 104.791 13.06 104.178 13.06C103.531 13.06 102.998 13.22 102.578 13.54C102.158 13.8533 101.848 14.28 101.648 14.82C101.448 15.3533 101.348 15.9467 101.348 16.6C101.348 17.26 101.444 17.86 101.638 18.4C101.838 18.9333 102.141 19.3567 102.548 19.67C102.954 19.9833 103.471 20.14 104.098 20.14ZM106.808 22V14.42H106.508V7.6H108.938V22H106.808ZM112.541 9.56V7.35H114.951V9.56H112.541ZM112.541 22V11.2H114.951V22H112.541ZM121.567 22.3C120.787 22.3 120.127 22.1533 119.587 21.86C119.047 21.56 118.637 21.1633 118.357 20.67C118.084 20.1767 117.947 19.6333 117.947 19.04C117.947 18.52 118.034 18.0533 118.207 17.64C118.38 17.22 118.647 16.86 119.007 16.56C119.367 16.2533 119.834 16.0033 120.407 15.81C120.84 15.67 121.347 15.5433 121.927 15.43C122.514 15.3167 123.147 15.2133 123.827 15.12C124.514 15.02 125.23 14.9133 125.977 14.8L125.117 15.29C125.124 14.5433 124.957 13.9933 124.617 13.64C124.277 13.2867 123.704 13.11 122.897 13.11C122.41 13.11 121.94 13.2233 121.487 13.45C121.034 13.6767 120.717 14.0667 120.537 14.62L118.337 13.93C118.604 13.0167 119.11 12.2833 119.857 11.73C120.61 11.1767 121.624 10.9 122.897 10.9C123.857 10.9 124.7 11.0567 125.427 11.37C126.16 11.6833 126.704 12.1967 127.057 12.91C127.25 13.29 127.367 13.68 127.407 14.08C127.447 14.4733 127.467 14.9033 127.467 15.37V22H125.357V19.66L125.707 20.04C125.22 20.82 124.65 21.3933 123.997 21.76C123.35 22.12 122.54 22.3 121.567 22.3ZM122.047 20.38C122.594 20.38 123.06 20.2833 123.447 20.09C123.834 19.8967 124.14 19.66 124.367 19.38C124.6 19.1 124.757 18.8367 124.837 18.59C124.964 18.2833 125.034 17.9333 125.047 17.54C125.067 17.14 125.077 16.8167 125.077 16.57L125.817 16.79C125.09 16.9033 124.467 17.0033 123.947 17.09C123.427 17.1767 122.98 17.26 122.607 17.34C122.234 17.4133 121.904 17.4967 121.617 17.59C121.337 17.69 121.1 17.8067 120.907 17.94C120.714 18.0733 120.564 18.2267 120.457 18.4C120.357 18.5733 120.307 18.7767 120.307 19.01C120.307 19.2767 120.374 19.5133 120.507 19.72C120.64 19.92 120.834 20.08 121.087 20.2C121.347 20.32 121.667 20.38 122.047 20.38Z" fill="#121212"/>
<path d="M2.00195 56.002C2.00312 60.9214 5.58036 65.1101 10.439 65.881V58.892H7.90195V56.002H10.442V53.802C10.3284 52.7596 10.6845 51.7206 11.4136 50.967C12.1427 50.2133 13.1693 49.8231 14.215 49.902C14.9655 49.9142 15.7141 49.981 16.455 50.102V52.561H15.191C14.7558 52.504 14.3183 52.6478 14.0017 52.9517C13.6851 53.2557 13.5237 53.6869 13.563 54.124V56.002H16.334L15.891 58.893H13.563V65.881C18.8174 65.0506 22.502 60.2518 21.9475 54.9611C21.3929 49.6704 16.7932 45.74 11.4808 46.0172C6.16831 46.2945 2.0028 50.6824 2.00195 56.002Z" fill="#121212"/>
<path d="M46.002 65.0409C43.542 65.0409 43.252 65.0279 42.292 64.9859C41.5433 64.9613 40.8044 64.8091 40.107 64.5359C38.9003 64.0663 37.9461 63.1117 37.477 61.9049C37.2143 61.2049 37.0726 60.4654 37.058 59.7179C37.002 58.7599 37.002 58.4459 37.002 56.0049C37.002 53.5379 37.015 53.2499 37.058 52.2949C37.0729 51.5484 37.2146 50.8099 37.477 50.1109C37.9456 48.9024 38.9013 47.9471 40.11 47.4789C40.8086 47.2151 41.5473 47.073 42.294 47.0589C43.249 47.0049 43.563 47.0049 46.002 47.0049C48.482 47.0049 48.767 47.0179 49.712 47.0589C50.4605 47.0731 51.2012 47.2152 51.902 47.4789C53.1103 47.9476 54.0658 48.9028 54.535 50.1109C54.8021 50.8201 54.9445 51.5701 54.956 52.3279C55.012 53.2859 55.012 53.5989 55.012 56.0389C55.012 58.4789 54.998 58.7989 54.956 59.7459C54.9411 60.4941 54.799 61.2343 54.536 61.9349C54.0656 63.1426 53.11 64.0975 51.902 64.5669C51.2022 64.8291 50.4631 64.9707 49.716 64.9859C48.761 65.0409 48.448 65.0409 46.002 65.0409ZM45.968 48.5879C43.522 48.5879 43.268 48.5999 42.313 48.6429C41.7429 48.6504 41.1784 48.7556 40.644 48.9539C39.8547 49.2559 39.2302 49.8779 38.925 50.6659C38.7252 51.2062 38.62 51.7769 38.614 52.3529C38.561 53.3219 38.561 53.5759 38.561 56.0049C38.561 58.4049 38.57 58.6959 38.614 59.6589C38.6229 60.2291 38.728 60.7937 38.925 61.3289C39.2306 62.1164 39.855 62.7379 40.644 63.0399C41.1781 63.2395 41.7428 63.3447 42.313 63.3509C43.281 63.4069 43.536 63.4069 45.968 63.4069C48.421 63.4069 48.675 63.3949 49.622 63.3509C50.1924 63.3439 50.7573 63.2387 51.292 63.0399C52.0764 62.7353 52.6969 62.1152 53.002 61.3309C53.2014 60.7901 53.3065 60.2192 53.313 59.6429H53.324C53.367 58.6869 53.367 58.4319 53.367 55.9889C53.367 53.5459 53.356 53.2889 53.313 52.3339C53.304 51.7643 53.1988 51.2004 53.002 50.6659C52.6976 49.8805 52.077 49.2592 51.292 48.9539C50.7574 48.7546 50.1924 48.6494 49.622 48.6429C48.655 48.5879 48.402 48.5879 45.968 48.5879ZM46.002 60.6239C44.1319 60.6251 42.4454 59.4996 41.7288 57.7723C41.0123 56.0451 41.4069 54.0562 42.7286 52.7333C44.0503 51.4105 46.0388 51.0142 47.7667 51.7292C49.4946 52.4443 50.6215 54.1299 50.622 55.9999C50.6192 58.5509 48.553 60.6189 46.002 60.6239ZM46.002 52.9979C44.3451 52.9979 43.002 54.341 43.002 55.9979C43.002 57.6547 44.3451 58.9979 46.002 58.9979C47.6588 58.9979 49.002 57.6547 49.002 55.9979C48.9981 54.3426 47.6572 53.0017 46.002 52.9979ZM50.802 52.2849C50.2074 52.2827 49.7269 51.7995 49.728 51.2049C49.7291 50.6103 50.2114 50.1289 50.806 50.1289C51.4005 50.1289 51.8828 50.6103 51.884 51.2049C51.8842 51.4917 51.7702 51.7669 51.5672 51.9696C51.3642 52.1722 51.0888 52.2857 50.802 52.2849Z" fill="#121212"/>
<path d="M87.995 50.688C88.8914 50.1521 89.5622 49.3082 89.882 48.314C89.0397 48.8138 88.118 49.1659 87.157 49.355C85.8246 47.9455 83.7135 47.6025 82.0034 48.5176C80.2933 49.4328 79.4075 51.3795 79.841 53.27C76.3906 53.0968 73.176 51.4669 70.997 48.786C69.8599 50.7474 70.441 53.2548 72.325 54.516C71.6437 54.4941 70.9775 54.3096 70.382 53.978C70.382 53.996 70.382 54.014 70.382 54.032C70.3824 56.0751 71.8224 57.8351 73.825 58.24C73.1931 58.4119 72.5302 58.4372 71.887 58.314C72.4502 60.0613 74.0606 61.2583 75.896 61.294C74.3758 62.4871 72.4985 63.1342 70.566 63.131C70.2235 63.1315 69.8812 63.1118 69.541 63.072C71.5034 64.333 73.7874 65.0023 76.12 65C79.3653 65.0223 82.484 63.7429 84.7787 61.448C87.0734 59.1531 88.3526 56.0342 88.33 52.789C88.33 52.603 88.3257 52.418 88.317 52.234C89.1575 51.6266 89.8828 50.8741 90.459 50.012C89.676 50.3591 88.8455 50.5869 87.995 50.688Z" fill="#121212"/>
</svg>
