<svg width="173" height="24" viewBox="0 0 173 24" fill="none" xmlns="http://www.w3.org/2000/svg">
<path d="M-5.37038e-05 17.64V0.359999H2.89195V7.632H11.0759V0.359999H13.9559V17.64H11.0759V10.344H2.89195V17.64H-5.37038e-05ZM23.9323 18C22.6203 18 21.4683 17.716 20.4763 17.148C19.4843 16.58 18.7083 15.792 18.1483 14.784C17.5963 13.776 17.3203 12.616 17.3203 11.304C17.3203 9.888 17.5923 8.66 18.1363 7.62C18.6803 6.572 19.4363 5.76 20.4043 5.184C21.3723 4.608 22.4923 4.32 23.7643 4.32C25.1083 4.32 26.2483 4.636 27.1843 5.268C28.1283 5.892 28.8283 6.776 29.2843 7.92C29.7403 9.064 29.9123 10.412 29.8003 11.964H26.9323V10.908C26.9243 9.5 26.6763 8.472 26.1883 7.824C25.7003 7.176 24.9323 6.852 23.8843 6.852C22.7003 6.852 21.8203 7.22 21.2443 7.956C20.6683 8.684 20.3803 9.752 20.3803 11.16C20.3803 12.472 20.6683 13.488 21.2443 14.208C21.8203 14.928 22.6603 15.288 23.7643 15.288C24.4763 15.288 25.0883 15.132 25.6003 14.82C26.1203 14.5 26.5203 14.04 26.8003 13.44L29.6563 14.304C29.1603 15.472 28.3923 16.38 27.3523 17.028C26.3203 17.676 25.1803 18 23.9323 18ZM19.4683 11.964V9.78H28.3843V11.964H19.4683ZM36.5874 18C35.6514 18 34.8594 17.824 34.2114 17.472C33.5634 17.112 33.0714 16.636 32.7354 16.044C32.4074 15.452 32.2434 14.8 32.2434 14.088C32.2434 13.464 32.3474 12.904 32.5554 12.408C32.7634 11.904 33.0834 11.472 33.5154 11.112C33.9474 10.744 34.5074 10.444 35.1954 10.212C35.7154 10.044 36.3234 9.892 37.0194 9.756C37.7234 9.62 38.4834 9.496 39.2994 9.384C40.1234 9.264 40.9834 9.136 41.8794 9L40.8474 9.588C40.8554 8.692 40.6554 8.032 40.2474 7.608C39.8394 7.184 39.1514 6.972 38.1834 6.972C37.5994 6.972 37.0354 7.108 36.4914 7.38C35.9474 7.652 35.5674 8.12 35.3514 8.784L32.7114 7.956C33.0314 6.86 33.6394 5.98 34.5354 5.316C35.4394 4.652 36.6554 4.32 38.1834 4.32C39.3354 4.32 40.3474 4.508 41.2194 4.884C42.0994 5.26 42.7514 5.876 43.1754 6.732C43.4074 7.188 43.5474 7.656 43.5954 8.136C43.6434 8.608 43.6674 9.124 43.6674 9.684V17.64H41.1354V14.832L41.5554 15.288C40.9714 16.224 40.2874 16.912 39.5034 17.352C38.7274 17.784 37.7554 18 36.5874 18ZM37.1634 15.696C37.8194 15.696 38.3794 15.58 38.8434 15.348C39.3074 15.116 39.6754 14.832 39.9474 14.496C40.2274 14.16 40.4154 13.844 40.5114 13.548C40.6634 13.18 40.7474 12.76 40.7634 12.288C40.7874 11.808 40.7994 11.42 40.7994 11.124L41.6874 11.388C40.8154 11.524 40.0674 11.644 39.4434 11.748C38.8194 11.852 38.2834 11.952 37.8354 12.048C37.3874 12.136 36.9914 12.236 36.6474 12.348C36.3114 12.468 36.0274 12.608 35.7954 12.768C35.5634 12.928 35.3834 13.112 35.2554 13.32C35.1354 13.528 35.0754 13.772 35.0754 14.052C35.0754 14.372 35.1554 14.656 35.3154 14.904C35.4754 15.144 35.7074 15.336 36.0114 15.48C36.3234 15.624 36.7074 15.696 37.1634 15.696ZM47.7515 17.64V-9.53674e-07H50.6435V17.64H47.7515ZM63.9221 17.64V11.4C63.9221 10.992 63.8941 10.54 63.8381 10.044C63.7821 9.548 63.6501 9.072 63.4421 8.616C63.2421 8.152 62.9381 7.772 62.5301 7.476C62.1301 7.18 61.5861 7.032 60.8981 7.032C60.5301 7.032 60.1661 7.092 59.8061 7.212C59.4461 7.332 59.1181 7.54 58.8221 7.836C58.5341 8.124 58.3021 8.524 58.1261 9.036C57.9501 9.54 57.8621 10.188 57.8621 10.98L56.1461 10.248C56.1461 9.144 56.3581 8.144 56.7821 7.248C57.2141 6.352 57.8461 5.64 58.6781 5.112C59.5101 4.576 60.5341 4.308 61.7501 4.308C62.7101 4.308 63.5021 4.468 64.1261 4.788C64.7501 5.108 65.2461 5.516 65.6141 6.012C65.9821 6.508 66.2541 7.036 66.4301 7.596C66.6061 8.156 66.7181 8.688 66.7661 9.192C66.8221 9.688 66.8501 10.092 66.8501 10.404V17.64H63.9221ZM54.9341 17.64V0.359999H57.5141V9.456H57.8621V17.64H54.9341ZM78.2975 17.64C77.4415 17.8 76.6015 17.868 75.7775 17.844C74.9615 17.828 74.2295 17.68 73.5815 17.4C72.9335 17.112 72.4415 16.66 72.1055 16.044C71.8095 15.484 71.6535 14.912 71.6375 14.328C71.6215 13.744 71.6135 13.084 71.6135 12.348V1.08H74.4935V12.18C74.4935 12.7 74.4975 13.156 74.5055 13.548C74.5215 13.94 74.6055 14.26 74.7575 14.508C75.0455 14.988 75.5055 15.256 76.1375 15.312C76.7695 15.368 77.4895 15.336 78.2975 15.216V17.64ZM69.2615 6.948V4.68H78.2975V6.948H69.2615ZM83.1568 23.4L85.6528 16.548L85.7008 18.564L80.0488 4.68H83.0608L87.0688 14.952H86.3008L90.2008 4.68H93.0928L85.8688 23.4H83.1568Z" fill="#121212"/>
<path d="M102.91 18C101.182 18 99.7024 17.624 98.4704 16.872C97.2384 16.112 96.2904 15.056 95.6264 13.704C94.9704 12.352 94.6424 10.784 94.6424 9C94.6424 7.216 94.9704 5.648 95.6264 4.296C96.2904 2.944 97.2384 1.892 98.4704 1.14C99.7024 0.379999 101.182 -9.53674e-07 102.91 -9.53674e-07C104.902 -9.53674e-07 106.562 0.499999 107.89 1.5C109.218 2.492 110.15 3.832 110.686 5.52L107.77 6.324C107.434 5.196 106.862 4.316 106.054 3.684C105.246 3.044 104.198 2.724 102.91 2.724C101.75 2.724 100.782 2.984 100.006 3.504C99.2384 4.024 98.6584 4.756 98.2664 5.7C97.8824 6.636 97.6864 7.736 97.6784 9C97.6784 10.264 97.8704 11.368 98.2544 12.312C98.6464 13.248 99.2304 13.976 100.006 14.496C100.782 15.016 101.75 15.276 102.91 15.276C104.198 15.276 105.246 14.956 106.054 14.316C106.862 13.676 107.434 12.796 107.77 11.676L110.686 12.48C110.15 14.168 109.218 15.512 107.89 16.512C106.562 17.504 104.902 18 102.91 18ZM117.665 18C116.729 18 115.937 17.824 115.289 17.472C114.641 17.112 114.149 16.636 113.813 16.044C113.485 15.452 113.321 14.8 113.321 14.088C113.321 13.464 113.425 12.904 113.633 12.408C113.841 11.904 114.161 11.472 114.593 11.112C115.025 10.744 115.585 10.444 116.273 10.212C116.793 10.044 117.401 9.892 118.097 9.756C118.801 9.62 119.561 9.496 120.377 9.384C121.201 9.264 122.061 9.136 122.957 9L121.925 9.588C121.933 8.692 121.733 8.032 121.325 7.608C120.917 7.184 120.229 6.972 119.261 6.972C118.677 6.972 118.113 7.108 117.569 7.38C117.025 7.652 116.645 8.12 116.429 8.784L113.789 7.956C114.109 6.86 114.717 5.98 115.613 5.316C116.517 4.652 117.733 4.32 119.261 4.32C120.413 4.32 121.425 4.508 122.297 4.884C123.177 5.26 123.829 5.876 124.253 6.732C124.485 7.188 124.625 7.656 124.673 8.136C124.721 8.608 124.745 9.124 124.745 9.684V17.64H122.213V14.832L122.633 15.288C122.049 16.224 121.365 16.912 120.581 17.352C119.805 17.784 118.833 18 117.665 18ZM118.241 15.696C118.897 15.696 119.457 15.58 119.921 15.348C120.385 15.116 120.753 14.832 121.025 14.496C121.305 14.16 121.493 13.844 121.589 13.548C121.741 13.18 121.825 12.76 121.841 12.288C121.865 11.808 121.877 11.42 121.877 11.124L122.765 11.388C121.893 11.524 121.145 11.644 120.521 11.748C119.897 11.852 119.361 11.952 118.913 12.048C118.465 12.136 118.069 12.236 117.725 12.348C117.389 12.468 117.105 12.608 116.873 12.768C116.641 12.928 116.461 13.112 116.333 13.32C116.213 13.528 116.153 13.772 116.153 14.052C116.153 14.372 116.233 14.656 116.393 14.904C116.553 15.144 116.785 15.336 117.089 15.48C117.401 15.624 117.785 15.696 118.241 15.696ZM128.589 17.64V4.68H131.145V7.836L130.833 7.428C130.993 6.996 131.205 6.604 131.469 6.252C131.741 5.892 132.065 5.596 132.441 5.364C132.761 5.148 133.113 4.98 133.497 4.86C133.889 4.732 134.289 4.656 134.697 4.632C135.105 4.6 135.501 4.616 135.885 4.68V7.38C135.501 7.268 135.057 7.232 134.553 7.272C134.057 7.312 133.609 7.452 133.209 7.692C132.809 7.908 132.481 8.184 132.225 8.52C131.977 8.856 131.793 9.24 131.673 9.672C131.553 10.096 131.493 10.556 131.493 11.052V17.64H128.589ZM144.553 18C143.241 18 142.089 17.716 141.097 17.148C140.105 16.58 139.329 15.792 138.769 14.784C138.217 13.776 137.941 12.616 137.941 11.304C137.941 9.888 138.213 8.66 138.757 7.62C139.301 6.572 140.057 5.76 141.025 5.184C141.993 4.608 143.113 4.32 144.385 4.32C145.729 4.32 146.869 4.636 147.805 5.268C148.749 5.892 149.449 6.776 149.905 7.92C150.361 9.064 150.533 10.412 150.421 11.964H147.553V10.908C147.545 9.5 147.297 8.472 146.809 7.824C146.321 7.176 145.553 6.852 144.505 6.852C143.321 6.852 142.441 7.22 141.865 7.956C141.289 8.684 141.001 9.752 141.001 11.16C141.001 12.472 141.289 13.488 141.865 14.208C142.441 14.928 143.281 15.288 144.385 15.288C145.097 15.288 145.709 15.132 146.221 14.82C146.741 14.5 147.141 14.04 147.421 13.44L150.277 14.304C149.781 15.472 149.013 16.38 147.973 17.028C146.941 17.676 145.801 18 144.553 18ZM140.089 11.964V9.78H149.005V11.964H140.089ZM154.058 17.64V-9.53674e-07H156.95V17.64H154.058ZM162.969 23.4L165.465 16.548L165.513 18.564L159.861 4.68H162.873L166.881 14.952H166.113L170.013 4.68H172.905L165.681 23.4H162.969Z" fill="#4D77FF"/>
</svg>
